<svg width="62" height="62" viewBox="0 0 62 62" fill="none" xmlns="http://www.w3.org/2000/svg">
<rect width="62" height="62" rx="6" fill="current" fill-opacity="0.2"/>
<path d="M21.0007 30.8285V36.1619C21.0007 37.2685 21.894 38.1619 23.0007 38.1619C24.1073 38.1619 25.0007 37.2685 25.0007 36.1619V30.8285C25.0007 29.7219 24.1073 28.8285 23.0007 28.8285C21.894 28.8285 21.0007 29.7219 21.0007 30.8285ZM29.0007 30.8285V36.1619C29.0007 37.2685 29.894 38.1619 31.0007 38.1619C32.1073 38.1619 33.0007 37.2685 33.0007 36.1619V30.8285C33.0007 29.7219 32.1073 28.8285 31.0007 28.8285C29.894 28.8285 29.0007 29.7219 29.0007 30.8285ZM20.334 44.8285H41.6673C42.774 44.8285 43.6673 43.9352 43.6673 42.8285C43.6673 41.7219 42.774 40.8285 41.6673 40.8285H20.334C19.2273 40.8285 18.334 41.7219 18.334 42.8285C18.334 43.9352 19.2273 44.8285 20.334 44.8285ZM37.0007 30.8285V36.1619C37.0007 37.2685 37.894 38.1619 39.0007 38.1619C40.1073 38.1619 41.0007 37.2685 41.0007 36.1619V30.8285C41.0007 29.7219 40.1073 28.8285 39.0007 28.8285C37.894 28.8285 37.0007 29.7219 37.0007 30.8285ZM29.7606 17.4819L19.2273 23.0285C18.6807 23.3085 18.334 23.8819 18.334 24.4952C18.334 25.4152 19.0807 26.1619 20.0007 26.1619H42.014C42.9207 26.1619 43.6673 25.4152 43.6673 24.4952C43.6673 23.8819 43.3207 23.3085 42.774 23.0285L32.2407 17.4819C31.4673 17.0685 30.534 17.0685 29.7606 17.4819Z" fill="current"/>
</svg>
