<svg width="62" height="62" viewBox="0 0 62 62" fill="none" xmlns="http://www.w3.org/2000/svg">
<rect width="62" height="62" rx="6" fill="current" fill-opacity="0.2"/>
<path d="M43.0006 17.666H19.0007C17.534 17.666 16.334 18.866 16.334 20.3327V36.3327C16.334 37.7993 17.534 38.9993 19.0007 38.9993H28.334L26.1607 42.266C25.574 43.146 26.2007 44.3327 27.2673 44.3327H34.734C35.8006 44.3327 36.4406 43.146 35.8407 42.266L33.6673 38.9993H43.0006C44.4673 38.9993 45.6673 37.7993 45.6673 36.3327V20.3327C45.6673 18.866 44.4673 17.666 43.0006 17.666ZM43.0006 33.666H19.0007V21.666C19.0007 20.9327 19.6007 20.3327 20.334 20.3327H41.6673C42.4007 20.3327 43.0006 20.9327 43.0006 21.666V33.666Z" fill="current"/>
</svg>
