<svg width="62" height="62" viewBox="0 0 62 62" fill="none" xmlns="http://www.w3.org/2000/svg">
<rect width="62" height="62" rx="6" fill="current" fill-opacity="0.2"/>
<path d="M42.3867 38.64L35 29.6667V21.6667H36.3333C37.0667 21.6667 37.6667 21.0667 37.6667 20.3333C37.6667 19.6 37.0667 19 36.3333 19H25.6667C24.9333 19 24.3333 19.6 24.3333 20.3333C24.3333 21.0667 24.9333 21.6667 25.6667 21.6667H27V29.6667L19.6133 38.64C19.1867 39.16 19 39.7467 19 40.3333C19.0133 41.7067 20.0933 43 21.6667 43H40.3333C41.92 43 43 41.7067 43 40.3333C43 39.7467 42.8133 39.16 42.3867 38.64Z" fill="current"/>
</svg>
