<svg width="62" height="62" viewBox="0 0 62 62" fill="none" xmlns="http://www.w3.org/2000/svg">
<rect width="62" height="62" rx="6" fill="current" fill-opacity="0.2"/>
<g clip-path="url(#clip0_21480_1534)">
<path d="M30.986 17.666C23.626 17.666 17.666 23.6393 17.666 30.9993C17.666 38.3594 23.626 44.3327 30.986 44.3327C38.3594 44.3327 44.3327 38.3594 44.3327 30.9993C44.3327 23.6393 38.3594 17.666 30.986 17.666ZM40.226 25.666H36.2927C35.866 23.9993 35.2527 22.3993 34.4527 20.9193C36.906 21.7593 38.946 23.466 40.226 25.666ZM30.9993 20.386C32.106 21.986 32.9727 23.7593 33.546 25.666H28.4527C29.026 23.7593 29.8927 21.986 30.9993 20.386ZM20.6793 33.666C20.466 32.8127 20.3327 31.9193 20.3327 30.9993C20.3327 30.0793 20.466 29.186 20.6793 28.3327H25.186C25.0793 29.2127 24.9993 30.0927 24.9993 30.9993C24.9993 31.906 25.0793 32.786 25.186 33.666H20.6793ZM21.7727 36.3327H25.706C26.1327 37.9993 26.746 39.5993 27.546 41.0793C25.0927 40.2393 23.0527 38.546 21.7727 36.3327ZM25.706 25.666H21.7727C23.0527 23.4527 25.0927 21.7593 27.546 20.9193C26.746 22.3993 26.1327 23.9993 25.706 25.666ZM30.9993 41.6127C29.8927 40.0127 29.026 38.2393 28.4527 36.3327H33.546C32.9727 38.2393 32.106 40.0127 30.9993 41.6127ZM34.1194 33.666H27.8793C27.7593 32.786 27.666 31.906 27.666 30.9993C27.666 30.0927 27.7593 29.1993 27.8793 28.3327H34.1194C34.2393 29.1993 34.3327 30.0927 34.3327 30.9993C34.3327 31.906 34.2393 32.786 34.1194 33.666ZM34.4527 41.0793C35.2527 39.5993 35.866 37.9993 36.2927 36.3327H40.226C38.946 38.5327 36.906 40.2393 34.4527 41.0793ZM36.8127 33.666C36.9193 32.786 36.9993 31.906 36.9993 30.9993C36.9993 30.0927 36.9193 29.2127 36.8127 28.3327H41.3193C41.5327 29.186 41.666 30.0793 41.666 30.9993C41.666 31.9193 41.5327 32.8127 41.3193 33.666H36.8127Z" fill="current"/>
</g>
<defs>
<clipPath id="clip0_21480_1534">
<rect width="32" height="32" fill="white" transform="translate(15 15)"/>
</clipPath>
</defs>
</svg>
