<svg width="62" height="62" viewBox="0 0 62 62" fill="none" xmlns="http://www.w3.org/2000/svg">
<rect width="62" height="62" rx="6" fill="current" fill-opacity="0.2"/>
<path d="M40.334 34.9993H21.6673C20.934 34.9993 20.334 34.3993 20.334 33.666C20.334 32.9327 20.934 32.3327 21.6673 32.3327H40.334C41.0673 32.3327 41.6673 32.9327 41.6673 33.666C41.6673 34.3993 41.0673 34.9993 40.334 34.9993ZM40.334 37.666H21.6673C20.934 37.666 20.334 38.266 20.334 38.9993C20.334 39.7327 20.934 40.3327 21.6673 40.3327H40.334C41.0673 40.3327 41.6673 39.7327 41.6673 38.9993C41.6673 38.266 41.0673 37.666 40.334 37.666ZM35.0007 29.666L41.1073 25.3327C41.454 25.0793 41.6673 24.6793 41.6673 24.2527C41.6673 23.1727 40.4406 22.5327 39.5606 23.1593L35.0007 26.3993L28.334 21.666L20.974 26.146C20.574 26.3993 20.334 26.826 20.334 27.2927C20.334 28.3327 21.4673 28.9727 22.3607 28.426L28.2273 24.8527L35.0007 29.666Z" fill="current"/>
</svg>
