<svg width="62" height="62" viewBox="0 0 62 62" fill="none" xmlns="http://www.w3.org/2000/svg">
<rect width="62" height="62" rx="6" fill="current" fill-opacity="0.2"/>
<path d="M24.3327 40.814C22.866 40.814 21.666 42.014 21.666 43.4807H40.3327C40.3327 42.014 39.1327 40.814 37.666 40.814H32.3327V38.1473H36.3327C37.7993 38.1473 38.9993 36.9473 38.9993 35.4807H28.3327C26.1193 35.4807 24.3327 33.694 24.3327 31.4807C24.3327 30.0273 25.1193 28.7607 26.2793 28.0673C25.8927 27.5207 25.666 26.8673 25.666 26.1473C25.666 25.8673 25.7193 25.5873 25.786 25.3207C23.3727 26.3207 21.666 28.7073 21.666 31.4807C21.666 35.1607 24.6527 38.1473 28.3327 38.1473V40.814H24.3327Z" fill="current"/>
<path d="M29.0793 22.8273C30.8793 22.8673 32.3327 24.334 32.3327 26.1473C32.3327 27.1473 31.8927 28.0273 31.1993 28.6407L31.5327 29.5473C31.786 30.2407 32.546 30.6007 33.2393 30.3473C33.4927 31.0407 34.2527 31.4007 34.946 31.1473C35.6393 30.894 35.9993 30.134 35.746 29.4407C36.4394 29.1873 36.7993 28.4273 36.546 27.734L33.7993 20.2007C33.546 19.5073 32.786 19.1473 32.0927 19.4007C31.8393 18.7073 31.0793 18.3473 30.386 18.6007C29.6927 18.854 29.3327 19.614 29.586 20.3073C28.8927 20.5607 28.5327 21.3207 28.786 22.014L29.0793 22.8273Z" fill="current"/>
<path d="M28.9993 28.1473C30.1039 28.1473 30.9993 27.2519 30.9993 26.1473C30.9993 25.0428 30.1039 24.1473 28.9993 24.1473C27.8948 24.1473 26.9993 25.0428 26.9993 26.1473C26.9993 27.2519 27.8948 28.1473 28.9993 28.1473Z" fill="current"/>
</svg>
