<svg width="62" height="62" viewBox="0 0 62 62" fill="none" xmlns="http://www.w3.org/2000/svg">
<rect width="62" height="62" rx="6" fill="current" fill-opacity="0.2"/>
<path d="M31 19C24.3733 19 19 24.3733 19 31C19 37.6267 24.3733 43 31 43C32.1067 43 33 42.1067 33 41C33 40.48 32.8 40.0133 32.48 39.6533C32.1733 39.3067 31.9733 38.84 31.9733 38.3333C31.9733 37.2267 32.8667 36.3333 33.9733 36.3333H36.3333C40.0133 36.3333 43 33.3467 43 29.6667C43 23.7733 37.6267 19 31 19ZM23.6667 31C22.56 31 21.6667 30.1067 21.6667 29C21.6667 27.8933 22.56 27 23.6667 27C24.7733 27 25.6667 27.8933 25.6667 29C25.6667 30.1067 24.7733 31 23.6667 31ZM27.6667 25.6667C26.56 25.6667 25.6667 24.7733 25.6667 23.6667C25.6667 22.56 26.56 21.6667 27.6667 21.6667C28.7733 21.6667 29.6667 22.56 29.6667 23.6667C29.6667 24.7733 28.7733 25.6667 27.6667 25.6667ZM34.3333 25.6667C33.2267 25.6667 32.3333 24.7733 32.3333 23.6667C32.3333 22.56 33.2267 21.6667 34.3333 21.6667C35.44 21.6667 36.3333 22.56 36.3333 23.6667C36.3333 24.7733 35.44 25.6667 34.3333 25.6667ZM38.3333 31C37.2267 31 36.3333 30.1067 36.3333 29C36.3333 27.8933 37.2267 27 38.3333 27C39.44 27 40.3333 27.8933 40.3333 29C40.3333 30.1067 39.44 31 38.3333 31Z" fill="current"/>
</svg>
