<svg width="62" height="62" viewBox="0 0 62 62" fill="none" xmlns="http://www.w3.org/2000/svg">
<rect width="62" height="62" rx="6" fill="current" fill-opacity="0.2"/>
<path d="M41.6673 27.0007C41.6673 26.2673 41.0673 25.6673 40.334 25.6673H36.334V21.6673C36.334 20.934 35.734 20.334 35.0007 20.334C34.2673 20.334 33.6673 20.934 33.6673 21.6673V25.6673H28.334V21.6673C28.334 20.934 27.734 20.334 27.0007 20.334C26.2673 20.334 25.6673 20.934 25.6673 21.6673V25.6673H21.6673C20.934 25.6673 20.334 26.2673 20.334 27.0007C20.334 27.734 20.934 28.334 21.6673 28.334H25.6673V33.6673H21.6673C20.934 33.6673 20.334 34.2673 20.334 35.0007C20.334 35.734 20.934 36.334 21.6673 36.334H25.6673V40.334C25.6673 41.0673 26.2673 41.6673 27.0007 41.6673C27.734 41.6673 28.334 41.0673 28.334 40.334V36.334H33.6673V40.334C33.6673 41.0673 34.2673 41.6673 35.0007 41.6673C35.734 41.6673 36.334 41.0673 36.334 40.334V36.334H40.334C41.0673 36.334 41.6673 35.734 41.6673 35.0007C41.6673 34.2673 41.0673 33.6673 40.334 33.6673H36.334V28.334H40.334C41.0673 28.334 41.6673 27.734 41.6673 27.0007ZM33.6673 33.6673H28.334V28.334H33.6673V33.6673Z" fill="current"/>
</svg>
