<svg width="62" height="62" viewBox="0 0 62 62" fill="none" xmlns="http://www.w3.org/2000/svg">
<rect width="62" height="62" rx="6" fill="current" fill-opacity="0.2"/>
<path d="M36.6514 30.3452L38.7447 28.2519L33.7447 23.2519L31.6514 25.3452L26.1314 19.8385C25.0914 18.7985 23.398 18.7985 22.358 19.8385L19.8247 22.3719C18.7847 23.4119 18.7847 25.1052 19.8247 26.1452L25.3314 31.6519L19.198 37.7985C19.0647 37.9319 18.998 38.0919 18.998 38.2785V42.3319C18.998 42.7052 19.2914 42.9985 19.6647 42.9985H23.718C23.8914 42.9985 24.0647 42.9319 24.1847 42.7985L30.3447 36.6385L35.8514 42.1452C37.6114 43.9052 39.5314 42.2385 39.6247 42.1452L42.158 39.6119C43.198 38.5719 43.198 36.8785 42.158 35.8385L36.6514 30.3452ZM27.238 29.7585L21.718 24.2519L24.238 21.7185L25.9314 23.4119L25.3047 24.0652C24.7847 24.5852 24.7847 25.4252 25.3047 25.9452C25.8247 26.4652 26.6647 26.4652 27.1847 25.9452L27.8247 25.3052L29.758 27.2385L27.238 29.7585ZM37.7447 40.2785L32.238 34.7719L34.7714 32.2385L36.7047 34.1719L36.0647 34.8119C35.5447 35.3319 35.5447 36.1719 36.0647 36.6919C36.5847 37.2119 37.4247 37.2119 37.9447 36.6919L38.5847 36.0519L40.278 37.7452L37.7447 40.2785Z" fill="current"/>
<path d="M42.6114 24.3852C43.1314 23.8652 43.1314 23.0252 42.6114 22.5052L39.4914 19.3852C38.8647 18.7585 37.998 18.9985 37.6114 19.3852L35.1714 21.8252L40.1714 26.8252L42.6114 24.3852Z" fill="current"/>
</svg>
